FFmpeg version SVN-r25716, Copyright (c) 2000-2010 the FFmpeg developers  built on Nov 10 2010 12:23:18 with gcc 4.1.2 20080704 (Red Hat 4.1.2-48)  configuration: --enable-libmp3lame --enable-shared --disable-mmx --arch=x86_64  libavutil     50.33. 0 / 50.33. 0  libavcore      0.12. 1 /  0.12. 1  libavcodec    52.94. 4 / 52.94. 4  libavformat   52.84. 0 / 52.84. 0  libavdevice   52. 2. 2 / 52. 2. 2  libavfilter    1.59. 0 /  1.59. 0  libswscale     0.12. 0 /  0.12. 0[mov,mp4,m4a,3gp,3g2,mj2 @ 0x1eee34c0] max_analyze_duration reachedSeems stream 0 codec frame rate differs from container frame rate: 600.00 (600/1) -> 5.00 (5/1)Input #0, mov,mp4,m4a,3gp,3g2,mj2, from '/RAID10/data/converted_video_files/23604.mov':  Metadata:    major_brand     : qt      minor_version   : 537199360    compatible_brands: qt    Duration: 00:00:19.40, bitrate: 993 kb/s    Stream #0.0(eng): Video: svq1, yuv410p, 332x298, 992 kb/s, 5 fps, 5 tbr, 600 tbn, 600 tbc[buffer @ 0x1eee8c80] w:332 h:298 pixfmt:yuv410p[ffsink @ 0x1eee8ef0] auto-inserting filter 'auto-inserted scaler 0' between the filter 'src' and the filter 'out'[scale @ 0x1eee9210] w:332 h:298 fmt:yuv410p -> w:332 h:298 fmt:yuv420p flags:0x4Output #0, flv, to '/RAID10/data/converted_video_files/23604.flv':  Metadata:    encoder         : Lavf52.84.0    Stream #0.0(eng): Video: flv, yuv420p, 332x298, q=2-31, 600 kb/s, 1k tbn, 24 tbcStream mapping:  Stream #0.0 -> #0.0Press [q] to stop encodingframe=   95 fps=  0 q=4.4 size=     762kB time=18.83 bitrate= 331.6kbits/s    frame=   97 fps=  0 q=3.9 Lsize=     784kB time=19.25 bitrate= 333.8kbits/s    video:783kB audio:0kB global headers:0kB muxing overhead 0.219863%